<svg xmlns="http://www.w3.org/2000/svg" viewBox="0 0 32 32">
<rect x="0.0200195" width="32" height="32" rx="16" fill="white"/>
<path d="M25.9368 17.5275C25.8462 17.0044 25.7118 16.4886 25.5296 15.99C25.5296 15.99 25.5296 15.9884 25.5296 15.9876L25.4546 15.785C25.4513 15.7768 25.4472 15.7703 25.4431 15.7629C25.2716 15.1848 24.9954 14.6108 24.6583 14.0754C24.3343 13.5604 23.956 13.0815 23.5611 12.6707C23.4704 12.5682 23.3797 12.4674 23.2858 12.369C23.2792 12.3624 23.2718 12.3567 23.2643 12.3509C23.0954 12.1607 22.9115 11.9885 22.7228 11.8269C22.534 11.6662 22.3411 11.5162 22.1548 11.3694L22.1531 11.3677C21.6643 10.9905 21.1293 10.6585 20.5729 10.3887H20.5721C19.9085 10.0615 19.2062 9.80238 18.4816 9.63018C18.1477 9.54736 17.799 9.4752 17.4437 9.44404C17.4281 9.43912 17.4124 9.43502 17.3959 9.43338L17.0464 9.39566C17.0464 9.39566 17.0423 9.39566 17.0406 9.39566C17.0382 9.39566 17.0365 9.39566 17.0349 9.39566C16.7241 9.3686 16.4075 9.35384 16.0885 9.35384C16.063 9.35384 16.0382 9.35384 16.0127 9.35466C15.9871 9.35384 15.9624 9.35384 15.9368 9.35384C15.6178 9.35384 15.3013 9.3686 14.9905 9.39566C14.9889 9.39566 14.9872 9.39566 14.9847 9.39566C14.9831 9.39566 14.9806 9.39566 14.979 9.39566L14.6295 9.43338C14.613 9.43502 14.5973 9.43912 14.5816 9.44404C14.2264 9.4752 13.8777 9.54736 13.5438 9.63018C12.8192 9.80238 12.1169 10.0615 11.4533 10.3887H11.4525C10.8961 10.6585 10.3611 10.9905 9.87223 11.3677H9.87058C9.87058 11.3677 9.87058 11.3677 9.87058 11.3694C9.68428 11.5162 9.49139 11.6662 9.30262 11.8269C9.11384 11.9885 8.93002 12.1607 8.76103 12.3509C8.75361 12.3567 8.74619 12.3624 8.7396 12.369C8.64562 12.4674 8.55495 12.5682 8.46427 12.6707C8.06941 13.0815 7.69105 13.5604 7.36708 14.0754C7.02993 14.6108 6.75378 15.1848 6.58232 15.7629C6.5782 15.7703 6.57407 15.7768 6.57078 15.785L6.49576 15.9876C6.49576 15.9876 6.49576 15.9884 6.49576 15.9892C6.31359 16.4886 6.17922 17.0044 6.08854 17.5275C5.98055 18.0876 5.92285 18.6583 5.92285 19.2274C5.92285 19.3028 5.92368 19.3791 5.92532 19.4545L5.93192 19.6808H6.95162C6.95162 19.6808 6.95492 19.6816 6.95739 19.6816C6.96069 19.6833 6.96398 19.6841 6.96811 19.6849C6.98294 19.6882 6.99861 19.6898 7.01427 19.6898H7.01757C7.38275 19.6841 7.74792 19.6825 8.11393 19.6825C8.90034 19.6825 9.69005 19.6907 10.4814 19.6907H10.643C12.0831 19.6882 13.529 19.6857 14.9798 19.6857C15.3244 19.6857 15.6698 19.6857 16.0152 19.6866C16.3606 19.6857 16.706 19.6857 17.0505 19.6857C18.5013 19.6857 19.9472 19.6882 21.3873 19.6907H21.5489C22.3403 19.6907 23.13 19.6825 23.9164 19.6825C24.2824 19.6825 24.6476 19.6841 25.0128 19.6898H25.016C25.0317 19.6898 25.0474 19.6882 25.0622 19.6849C25.0663 19.6841 25.0696 19.6833 25.0729 19.6816C25.0754 19.6816 25.0771 19.6808 25.0787 19.6808H26.0984L26.105 19.4545C26.1066 19.3791 26.1075 19.3028 26.1075 19.2274C26.1075 18.6583 26.0498 18.0876 25.9418 17.5275H25.9368ZM23.5578 14.4263C23.6147 14.1442 23.6584 13.8466 23.6584 13.5497V13.544C24.0747 14.0975 24.4308 14.7035 24.7259 15.3332C24.6072 15.2791 24.4852 15.2332 24.3615 15.193C24.0425 15.0913 23.7161 15.0265 23.4292 14.9708C23.4729 14.8002 23.5182 14.6174 23.5578 14.4263ZM23.0261 12.8003C23.1415 13.0102 23.191 13.266 23.191 13.5497C23.191 13.8007 23.1531 14.0696 23.0987 14.3337C23.0838 14.4075 23.0673 14.4813 23.0508 14.5534C22.4516 13.594 21.7649 12.6674 20.9818 11.8392C21.2357 11.9048 21.4871 11.9819 21.7303 12.0738C22.2067 12.2533 22.651 12.4879 23.0261 12.8003ZM20.6224 11.134C20.6405 11.0791 20.6562 11.0209 20.6693 10.9618C20.9867 11.1324 21.295 11.3235 21.5885 11.5317C21.2521 11.4219 20.91 11.3366 20.5737 11.2661C20.5902 11.2226 20.6075 11.18 20.6224 11.134ZM22.6791 14.8412C21.4755 14.6559 20.2638 14.56 19.0446 14.5108C19.4996 13.635 19.9382 12.7503 20.333 11.8417C21.2291 12.7281 22.0089 13.7621 22.6791 14.8412ZM16.0102 14.4739C15.7769 14.4714 15.5445 14.4698 15.312 14.4698C14.805 14.4698 14.2997 14.4772 13.7952 14.4878C14.4662 13.4915 15.1801 12.5395 16.0102 11.6875C16.8403 12.5395 17.5542 13.4915 18.2252 14.4878C17.7207 14.4772 17.2154 14.4698 16.7084 14.4698C16.476 14.4698 16.2435 14.4714 16.0102 14.4739ZM13.3781 14.2705C12.9231 13.3948 12.487 12.5141 12.0988 11.6146C13.1391 11.4276 14.2107 11.3546 15.2823 11.3546C15.4134 11.3546 15.5445 11.3563 15.6755 11.3579C14.8042 12.2525 14.0656 13.2455 13.3781 14.2705ZM16.3449 11.3579C16.476 11.3563 16.607 11.3546 16.7381 11.3546C17.8097 11.3546 18.8814 11.4276 19.9217 11.6146C19.5334 12.5141 19.0973 13.3948 18.6423 14.2705C17.9548 13.2455 17.2162 12.2525 16.3449 11.3579ZM20.2333 10.7446C20.2259 10.8208 20.2061 10.9036 20.1772 10.9905C20.1723 11.0053 20.1673 11.0209 20.1616 11.0356C19.9143 10.8101 19.6513 10.5888 19.3718 10.3838C19.6645 10.4904 19.9522 10.6109 20.2333 10.7446ZM17.02 10.1025C17.1272 10.0164 17.2327 9.95162 17.3308 9.90898C17.8361 10.018 18.3192 10.2427 18.7734 10.5371C19.024 10.6986 19.2655 10.8815 19.4963 11.0734C18.5846 10.9422 17.6589 10.8889 16.7381 10.8889C16.5856 10.8889 16.4339 10.8905 16.2831 10.8938C16.3383 10.8233 16.3952 10.7528 16.4545 10.6814C16.6326 10.4666 16.828 10.255 17.02 10.1025ZM15.8297 9.83846C15.8899 9.83846 15.95 9.83928 16.0102 9.8401C16.0704 9.8401 16.1306 9.83846 16.1907 9.83846C16.3276 9.83846 16.4636 9.84256 16.5996 9.84748C16.4916 9.94506 16.3886 10.05 16.2905 10.1574C16.1916 10.2665 16.0976 10.378 16.0102 10.4871C15.9228 10.378 15.8289 10.2665 15.7299 10.1574C15.6318 10.05 15.5288 9.94506 15.4208 9.84748C15.5568 9.84256 15.6928 9.83846 15.8297 9.83846ZM14.6896 9.90898C14.7877 9.95162 14.8932 10.0164 15.0004 10.1025C15.1925 10.255 15.3878 10.4666 15.5659 10.6814C15.6253 10.7528 15.6821 10.8233 15.7374 10.8938C15.5865 10.8905 15.4348 10.8889 15.2823 10.8889C14.3615 10.8889 13.4358 10.9422 12.5241 11.0734C12.7549 10.8815 12.9965 10.6986 13.247 10.5371C13.7013 10.2427 14.1843 10.018 14.6896 9.90898ZM12.6486 10.3838C12.3691 10.5888 12.1062 10.8101 11.8589 11.0356C11.8531 11.0209 11.8482 11.0053 11.8432 10.9905C11.8144 10.9036 11.7946 10.8208 11.7872 10.7446C12.0683 10.6109 12.3559 10.4904 12.6486 10.3838ZM11.6874 11.8417C12.0823 12.7503 12.5208 13.635 12.9758 14.5108C11.7567 14.56 10.5449 14.6559 9.34136 14.8412C10.0115 13.7621 10.7914 12.7281 11.6874 11.8417ZM11.3511 10.9618C11.3643 11.0209 11.3799 11.0791 11.3981 11.134C11.4129 11.18 11.4302 11.2226 11.4467 11.2661C11.1104 11.3366 10.7683 11.4219 10.432 11.5317C10.7254 11.3235 11.0337 11.1324 11.3511 10.9618ZM8.99432 12.8003C9.36939 12.4879 9.8137 12.2533 10.2902 12.0738C10.5333 11.9819 10.7848 11.9048 11.0387 11.8392C10.2555 12.6674 9.56888 13.594 8.96959 14.5534C8.9531 14.4813 8.93661 14.4075 8.92177 14.3337C8.86737 14.0696 8.82945 13.8007 8.82945 13.5497C8.82945 13.266 8.87891 13.0102 8.99432 12.8003ZM8.36205 13.544V13.5497C8.36205 13.8466 8.40574 14.1442 8.46262 14.4263C8.50219 14.6174 8.54753 14.8002 8.59122 14.9708C8.30435 15.0265 7.97791 15.0913 7.6589 15.193C7.53525 15.2332 7.41325 15.2791 7.29454 15.3332C7.58965 14.7035 7.94576 14.0975 8.36205 13.544ZM6.38613 19.2151C6.38613 18.8395 6.41415 18.4615 6.46609 18.0868C6.49411 18.2565 6.52626 18.4254 6.56171 18.5927C6.56418 18.6017 6.56583 18.6124 6.56748 18.6222C6.58644 18.7067 6.6054 18.7903 6.62518 18.874C6.6293 18.8904 6.6326 18.9068 6.6359 18.9223C6.65486 19.0002 6.67299 19.0757 6.69195 19.1519C6.6969 19.1733 6.70267 19.1946 6.70762 19.2151H6.38613ZM7.02498 18.5238C7.02334 18.5132 7.02086 18.5025 7.01839 18.4918C6.917 18.0154 6.84198 17.5349 6.84281 17.0692C6.84281 16.7846 6.87166 16.5066 6.93596 16.2352C6.94502 16.1991 6.95327 16.1622 6.96316 16.1253C7.05136 16.022 7.16347 15.931 7.29784 15.8523C7.52041 15.7227 7.79821 15.6276 8.08508 15.5554C8.19636 15.5276 8.3093 15.503 8.42058 15.48C7.8757 16.4476 7.38522 17.4832 7.03158 18.5509C7.02911 18.5419 7.02746 18.5328 7.02498 18.5238ZM8.10898 19.2175C7.84437 19.2175 7.57976 19.2192 7.31515 19.2216C7.65478 18.0171 8.19636 16.833 8.81461 15.7317C9.2037 16.9347 9.69582 18.0941 10.2588 19.2249C9.5425 19.2233 8.82615 19.2175 8.10898 19.2175ZM10.6372 18.9371C10.061 17.7702 9.56558 16.5763 9.18226 15.3381C10.4113 15.1372 11.6553 15.0323 12.9132 14.979C12.0856 16.2606 11.3255 17.5784 10.6372 18.9371ZM14.9749 19.2208C13.651 19.2208 12.332 19.2225 11.0156 19.2249C11.7146 17.8383 12.4878 16.4952 13.3336 15.1889C14.0598 16.5485 14.8248 17.8883 15.6038 19.2208H14.9749ZM16.0102 18.983C16.0094 18.9847 16.0086 18.9855 16.0077 18.9871C15.2271 17.6513 14.4629 16.3115 13.7384 14.9544C14.2626 14.9437 14.7869 14.9355 15.312 14.9355C15.5445 14.9355 15.7778 14.9372 16.0102 14.9396C16.2427 14.9372 16.476 14.9355 16.7084 14.9355C17.2335 14.9355 17.7578 14.9437 18.2821 14.9544C17.5575 16.3115 16.7933 17.6513 16.0127 18.9871C16.0127 18.9855 16.011 18.9847 16.0102 18.983ZM17.0456 19.2208H16.4166C17.1956 17.8883 17.9606 16.5485 18.6868 15.1889C19.5326 16.4952 20.3058 17.8383 21.0048 19.2249C19.6884 19.2225 18.3695 19.2208 17.0456 19.2208ZM21.3832 18.9371C20.6949 17.5784 19.9349 16.2606 19.1072 14.979C20.3652 15.0323 21.6091 15.1372 22.8382 15.3381C22.4548 16.5763 21.9594 17.7702 21.3832 18.9371ZM23.9114 19.2175C23.1943 19.2175 22.4779 19.2233 21.7616 19.2249C22.3246 18.0941 22.8167 16.9347 23.2058 15.7317C23.8241 16.833 24.3657 18.0171 24.7053 19.2216C24.4407 19.2192 24.1761 19.2175 23.9114 19.2175ZM25.002 18.4918C24.9996 18.5025 24.9971 18.5132 24.9954 18.5238C24.993 18.5328 24.9913 18.5419 24.9888 18.5509C24.6352 17.4832 24.1447 16.4476 23.5998 15.48C23.7111 15.503 23.8241 15.5276 23.9354 15.5554C24.2222 15.6276 24.5 15.7227 24.7226 15.8523C24.857 15.931 24.9691 16.022 25.0573 16.1253C25.0672 16.1622 25.0754 16.1991 25.0845 16.2352C25.1488 16.5066 25.1776 16.7846 25.1776 17.0692C25.1776 17.5349 25.1034 18.0154 25.002 18.4918ZM25.3128 19.2151C25.3178 19.1946 25.3235 19.1733 25.3285 19.1519C25.3474 19.0757 25.3656 19.0002 25.3845 18.9223C25.3878 18.9068 25.3911 18.8904 25.3952 18.874C25.415 18.7903 25.434 18.7067 25.4529 18.6222C25.4546 18.6124 25.4562 18.6017 25.4587 18.5927C25.4942 18.4254 25.5263 18.2565 25.5543 18.0868C25.6063 18.4615 25.6343 18.8395 25.6343 19.2151H25.3128Z" fill="black"/>
</svg>
