<?xml version="1.0" encoding="UTF-8"?>
<svg id="Layer_2" data-name="Layer 2" xmlns="http://www.w3.org/2000/svg" viewBox="0 0 244.86 126.08">
  <g id="OBJECTS">
    <path d="M242.85,99.7c-1.1-6.38-2.73-12.67-4.94-18.75h0s0-.02,0-.03l-.91-2.47c-.04-.1-.09-.18-.14-.27-2.08-7.05-5.43-14.05-9.52-20.58-3.93-6.28-8.52-12.12-13.31-17.13-1.1-1.25-2.2-2.48-3.34-3.68-.08-.08-.17-.15-.26-.22-2.05-2.32-4.28-4.42-6.57-6.39-2.29-1.96-4.63-3.79-6.89-5.58h0s-.02-.02-.02-.02c-5.93-4.6-12.42-8.65-19.17-11.94,0,0,0,0,0,0h-.01c-8.05-3.99-16.57-7.15-25.36-9.25-4.05-1.01-8.28-1.89-12.59-2.27-.19-.06-.38-.11-.58-.13l-4.24-.46s-.05,0-.07,0c-.03,0-.05,0-.07,0-3.77-.33-7.61-.51-11.48-.51-.31,0-.61,0-.92.01-.31-.01-.61-.01-.92-.01-3.87,0-7.71.18-11.48.51-.02,0-.04,0-.07,0-.02,0-.05,0-.07,0l-4.24.46c-.2.02-.39.07-.58.13-4.31.38-8.54,1.26-12.59,2.27-8.79,2.1-17.31,5.26-25.36,9.25h-.01s0,0,0,0c-6.75,3.29-13.24,7.34-19.17,11.94h-.02s0,0,0,.02c-2.26,1.79-4.6,3.62-6.89,5.58-2.29,1.97-4.52,4.07-6.57,6.39-.09.07-.18.14-.26.22-1.14,1.2-2.24,2.43-3.34,3.68-4.79,5.01-9.38,10.85-13.31,17.13-4.09,6.53-7.44,13.53-9.52,20.58-.05.09-.1.17-.14.27l-.91,2.47s0,.01,0,.02h0c-2.21,6.09-3.84,12.38-4.94,18.76-1.31,6.83-2.01,13.79-2.01,20.73,0,.92.01,1.85.03,2.77l.08,2.76h12.37s.04.01.07.01c.04.02.08.03.13.04.18.04.37.06.56.06h.04c4.43-.07,8.86-.09,13.3-.09,9.54,0,19.12.1,28.72.1h1.96c17.47-.03,35.01-.06,52.61-.06,4.18,0,8.37,0,12.56.01,4.19-.01,8.38-.01,12.56-.01,17.6,0,35.14.03,52.61.06h1.96c9.6,0,19.18-.1,28.72-.1,4.44,0,8.87.02,13.3.09h.04c.19,0,.38-.02.56-.06.05-.01.09-.02.13-.04.03,0,.05-.01.07-.01h12.37l.08-2.76c.02-.92.03-1.85.03-2.77,0-6.94-.7-13.9-2.01-20.73ZM213.99,61.88c.69-3.44,1.22-7.07,1.22-10.69v-.07c5.05,6.75,9.37,14.14,12.95,21.82-1.44-.66-2.92-1.22-4.42-1.71-3.87-1.24-7.83-2.03-11.31-2.71.53-2.08,1.08-4.31,1.56-6.64ZM207.54,42.05c1.4,2.56,2,5.68,2,9.14,0,3.06-.46,6.34-1.12,9.56-.18.9-.38,1.8-.58,2.68-7.27-11.7-15.6-23-25.1-33.1,3.08.8,6.13,1.74,9.08,2.86,5.78,2.19,11.17,5.05,15.72,8.86ZM178.38,21.73c.22-.67.41-1.38.57-2.1,3.85,2.08,7.59,4.41,11.15,6.95-4.08-1.34-8.23-2.38-12.31-3.24.2-.53.41-1.05.59-1.61ZM203.33,66.94c-14.6-2.26-29.3-3.43-44.09-4.03,5.52-10.68,10.84-21.47,15.63-32.55,10.87,10.81,20.33,23.42,28.46,36.58ZM122.43,62.46c-2.83-.03-5.65-.05-8.47-.05-6.15,0-12.28.09-18.4.22,8.14-12.15,16.8-23.76,26.87-34.15,10.07,10.39,18.73,22,26.87,34.15-6.12-.13-12.25-.22-18.4-.22-2.82,0-5.64.02-8.47.05ZM90.5,59.98c-5.52-10.68-10.81-21.42-15.52-32.39,12.62-2.28,25.62-3.17,38.62-3.17,1.59,0,3.18.02,4.77.04-10.57,10.91-19.53,23.02-27.87,35.52ZM126.49,24.46c1.59-.02,3.18-.04,4.77-.04,13,0,26,.89,38.62,3.17-4.71,10.97-10,21.71-15.52,32.39-8.34-12.5-17.3-24.61-27.87-35.52ZM173.66,16.98c-.09.93-.33,1.94-.68,3-.06.18-.12.37-.19.55-3-2.75-6.19-5.45-9.58-7.95,3.55,1.3,7.04,2.77,10.45,4.4ZM134.68,9.15c1.3-1.05,2.58-1.84,3.77-2.36,6.13,1.33,11.99,4.07,17.5,7.66,3.04,1.97,5.97,4.2,8.77,6.54-11.06-1.6-22.29-2.25-33.46-2.25-1.85,0-3.69.02-5.52.06.67-.86,1.36-1.72,2.08-2.59,2.16-2.62,4.53-5.2,6.86-7.06ZM120.24,5.93c.73,0,1.46.01,2.19.02h0c.73,0,1.46-.02,2.19-.02,1.66,0,3.31.05,4.96.11-1.31,1.19-2.56,2.47-3.75,3.78-1.2,1.33-2.34,2.69-3.4,4.02-1.06-1.33-2.2-2.69-3.4-4.02-1.19-1.31-2.44-2.59-3.75-3.78,1.65-.06,3.3-.11,4.96-.11ZM106.41,6.79c1.19.52,2.47,1.31,3.77,2.36,2.33,1.86,4.7,4.44,6.86,7.06.72.87,1.41,1.73,2.08,2.59-1.83-.04-3.67-.06-5.52-.06-11.17,0-22.4.65-33.46,2.25,2.8-2.34,5.73-4.57,8.77-6.54,5.51-3.59,11.37-6.33,17.5-7.66ZM81.65,12.58c-3.39,2.5-6.58,5.2-9.58,7.95-.07-.18-.13-.37-.19-.55-.35-1.06-.59-2.07-.68-3,3.41-1.63,6.9-3.1,10.45-4.4ZM69.99,30.36c4.79,11.08,10.11,21.87,15.63,32.55-14.79.6-29.49,1.77-44.09,4.03,8.13-13.16,17.59-25.77,28.46-36.58ZM65.91,19.63c.16.72.35,1.43.57,2.1.18.56.39,1.08.59,1.61-4.08.86-8.23,1.9-12.31,3.24,3.56-2.54,7.3-4.87,11.15-6.95ZM37.32,42.05c4.55-3.81,9.94-6.67,15.72-8.86,2.95-1.12,6-2.06,9.08-2.86-9.5,10.1-17.83,21.4-25.1,33.1-.2-.88-.4-1.78-.58-2.68-.66-3.22-1.12-6.5-1.12-9.56,0-3.46.6-6.58,2-9.14ZM29.65,51.12v.07c0,3.62.53,7.25,1.22,10.69.48,2.33,1.03,4.56,1.56,6.64-3.48.68-7.44,1.47-11.31,2.71-1.5.49-2.98,1.05-4.42,1.71,3.58-7.68,7.9-15.07,12.95-21.82ZM5.68,120.28c0-4.58.34-9.19.97-13.76.34,2.07.73,4.13,1.16,6.17.03.11.05.24.07.36.23,1.03.46,2.05.7,3.07.05.2.09.4.13.59.23.95.45,1.87.68,2.8.06.26.13.52.19.77h-3.9ZM13.43,111.85c-.02-.13-.05-.26-.08-.39-1.23-5.81-2.14-11.67-2.13-17.35,0-3.47.35-6.86,1.13-10.17.11-.44.21-.89.33-1.34,1.07-1.26,2.43-2.37,4.06-3.33,2.7-1.58,6.07-2.74,9.55-3.62,1.35-.34,2.72-.64,4.07-.92-6.61,11.8-12.56,24.43-16.85,37.45-.03-.11-.05-.22-.08-.33ZM26.58,120.31c-3.21,0-6.42.02-9.63.05,4.12-14.69,10.69-29.13,18.19-42.56,4.72,14.67,10.69,28.81,17.52,42.6-8.69-.02-17.38-.09-26.08-.09ZM57.25,116.89c-6.99-14.23-13-28.79-17.65-43.89,14.91-2.45,30-3.73,45.26-4.38-10.04,15.63-19.26,31.7-27.61,48.27ZM109.87,120.35c-16.06,0-32.06.02-48.03.05,8.48-16.91,17.86-33.29,28.12-49.22,8.81,16.58,18.09,32.92,27.54,49.17h-7.63ZM122.43,117.45h0s0,0,0,0h0s0,0,0,0c-.01.02-.02.03-.03.05-9.47-16.29-18.74-32.63-27.53-49.18,6.36-.13,12.72-.23,19.09-.23,2.82,0,5.65.02,8.47.05h0c2.82-.03,5.65-.05,8.47-.05,6.37,0,12.73.1,19.09.23-8.79,16.55-18.06,32.89-27.53,49.18,0-.02-.02-.03-.03-.05ZM134.99,120.35h-7.63c9.45-16.25,18.73-32.59,27.54-49.17,10.26,15.93,19.64,32.31,28.12,49.22-15.97-.03-31.97-.05-48.03-.05ZM187.61,116.89c-8.35-16.57-17.57-32.64-27.61-48.27,15.26.65,30.35,1.93,45.26,4.38-4.65,15.1-10.66,29.66-17.65,43.89ZM218.28,120.31c-8.7,0-17.39.07-26.08.09,6.83-13.79,12.8-27.93,17.52-42.6,7.5,13.43,14.07,27.87,18.19,42.56-3.21-.03-6.42-.05-9.63-.05ZM231.51,111.46c-.03.13-.06.26-.08.39-.03.11-.05.22-.08.33-4.29-13.02-10.24-25.65-16.85-37.45,1.35.28,2.72.58,4.07.92,3.48.88,6.85,2.04,9.55,3.62,1.63.96,2.99,2.07,4.06,3.33.12.45.22.9.33,1.34.78,3.31,1.13,6.7,1.13,10.17,0,5.68-.9,11.54-2.13,17.35ZM235.28,120.28c.06-.25.13-.51.19-.77.23-.93.45-1.85.68-2.8.04-.19.08-.39.13-.59.24-1.02.47-2.04.7-3.07.02-.12.04-.25.07-.36.43-2.04.82-4.1,1.16-6.17.63,4.57.97,9.18.97,13.76h-3.9Z"/>
  </g>
</svg>